<svg width="48" height="48" viewBox="0 0 48 48" fill="none" xmlns="http://www.w3.org/2000/svg">
<path fill-rule="evenodd" clip-rule="evenodd" d="M16.0954 17.5956C16.6812 17.0098 17.631 17.0098 18.2167 17.5956L30.948 30.3268C31.5338 30.9126 31.5338 31.8623 30.948 32.4481C30.3622 33.0339 29.4125 33.0339 28.8267 32.4481L16.0954 19.7169C15.5096 19.1311 15.5096 18.1813 16.0954 17.5956Z" fill="#000022"/>
<path fill-rule="evenodd" clip-rule="evenodd" d="M30.4577 8.79273C30.0999 8.64347 29.6748 8.64347 29.317 8.79273C29.1363 8.86811 28.9724 8.97857 28.8346 9.11771L28.8293 9.12313L7.6176 30.3348C7.47846 30.4725 7.36799 30.6364 7.2926 30.8171C7.14335 31.1749 7.14335 31.6 7.2926 31.9578C7.36799 32.1385 7.47844 32.3024 7.61759 32.4402L7.62301 32.4455L14.1399 38.9625H20.1914L39.4337 19.7385C39.7134 19.4514 39.87 19.0665 39.87 18.6656C39.87 18.2648 39.7135 17.88 39.434 17.593L30.94 9.11773C30.8023 8.97859 30.6384 8.86811 30.4577 8.79273ZM40.4998 41.9625C41.3283 41.9625 41.9998 41.2909 41.9998 40.4625C41.9998 39.634 41.3283 38.9625 40.4998 38.9625H24.4361L41.56 21.8549L41.5701 21.8446C42.4032 20.9962 42.87 19.8546 42.87 18.6656C42.87 17.4765 42.4032 16.335 41.5701 15.4865L33.0721 7.0072L33.0684 7.00343C32.6525 6.58425 32.1578 6.25139 31.6128 6.02401C30.5158 5.56638 29.2589 5.56638 28.1619 6.02401C27.6166 6.25153 27.1216 6.58465 26.7055 7.00419L26.7025 7.0072L5.50708 28.2027L5.50407 28.2057C5.08453 28.6217 4.75141 29.1167 4.52389 29.662C4.06625 30.759 4.06625 32.0159 4.52389 33.1129C4.75137 33.6581 5.08443 34.153 5.50388 34.5691L5.50708 34.5722L12.4579 41.5231C12.7392 41.8044 13.1208 41.9625 13.5186 41.9625H40.4998Z" fill="#000022"/>
</svg>
